<svg width="800" height="960" viewBox="0 0 800 960" fill="none" xmlns="http://www.w3.org/2000/svg">
  <rect width="800" height="960" fill="#07111A"/>
  <rect width="800" height="960" fill="url(#bg)"/>
  <circle cx="632" cy="188" r="126" fill="url(#glow1)" opacity="0.72"/>
  <circle cx="164" cy="304" r="188" fill="url(#glow2)" opacity="0.36"/>
  <rect x="76" y="76" width="648" height="808" rx="40" stroke="rgba(255,255,255,0.16)" stroke-width="2"/>
  <path d="M216 756C258 662 312 604 400 604C488 604 542 662 584 756V860H216V756Z" fill="url(#body)"/>
  <circle cx="400" cy="466" r="126" fill="url(#head)"/>
  <path d="M300 444C324 372 382 332 450 332C504 332 552 362 578 424C530 410 486 400 422 400C372 400 332 414 300 444Z" fill="#0B2E43" opacity="0.92"/>
  <path d="M224 774H576" stroke="white" stroke-opacity="0.2" stroke-width="2"/>
  <path d="M154 170H324" stroke="white" stroke-opacity="0.28" stroke-width="14" stroke-linecap="round"/>
  <path d="M154 214H264" stroke="white" stroke-opacity="0.16" stroke-width="10" stroke-linecap="round"/>
  <defs>
    <linearGradient id="bg" x1="90" y1="84" x2="686" y2="876" gradientUnits="userSpaceOnUse">
      <stop stop-color="#73E4DF"/>
      <stop offset="0.48" stop-color="#184B63"/>
      <stop offset="1" stop-color="#08131F"/>
    </linearGradient>
    <radialGradient id="glow1" cx="0" cy="0" r="1" gradientUnits="userSpaceOnUse" gradientTransform="translate(632 188) rotate(90) scale(126)">
      <stop stop-color="white"/>
      <stop offset="1" stop-color="white" stop-opacity="0"/>
    </radialGradient>
    <radialGradient id="glow2" cx="0" cy="0" r="1" gradientUnits="userSpaceOnUse" gradientTransform="translate(164 304) rotate(90) scale(188)">
      <stop stop-color="#B3FFF8"/>
      <stop offset="1" stop-color="#B3FFF8" stop-opacity="0"/>
    </radialGradient>
    <linearGradient id="body" x1="216" y1="604" x2="584" y2="860" gradientUnits="userSpaceOnUse">
      <stop stop-color="#D9FFFC"/>
      <stop offset="1" stop-color="#1B455A"/>
    </linearGradient>
    <linearGradient id="head" x1="274" y1="340" x2="526" y2="592" gradientUnits="userSpaceOnUse">
      <stop stop-color="#F3FFFE"/>
      <stop offset="1" stop-color="#95D7D5"/>
    </linearGradient>
  </defs>
</svg>
