<svg width="800" height="960" viewBox="0 0 800 960" fill="none" xmlns="http://www.w3.org/2000/svg">
  <rect width="800" height="960" fill="#0C0B08"/>
  <rect width="800" height="960" fill="url(#bg)"/>
  <circle cx="620" cy="176" r="136" fill="url(#glow1)" opacity="0.74"/>
  <circle cx="190" cy="326" r="178" fill="url(#glow2)" opacity="0.28"/>
  <rect x="76" y="76" width="648" height="808" rx="40" stroke="rgba(255,255,255,0.16)" stroke-width="2"/>
  <path d="M212 760C252 670 314 610 402 610C494 610 552 668 590 760V860H212V760Z" fill="url(#body)"/>
  <circle cx="402" cy="460" r="124" fill="url(#head)"/>
  <path d="M296 438C322 364 382 330 448 330C512 330 566 370 592 436C536 414 486 400 420 400C370 400 330 412 296 438Z" fill="#5F330B" opacity="0.92"/>
  <path d="M230 782H570" stroke="white" stroke-opacity="0.2" stroke-width="2"/>
  <path d="M152 170H332" stroke="white" stroke-opacity="0.28" stroke-width="14" stroke-linecap="round"/>
  <path d="M152 214H286" stroke="white" stroke-opacity="0.16" stroke-width="10" stroke-linecap="round"/>
  <defs>
    <linearGradient id="bg" x1="92" y1="82" x2="704" y2="888" gradientUnits="userSpaceOnUse">
      <stop stop-color="#FFC57B"/>
      <stop offset="0.48" stop-color="#9D5D17"/>
      <stop offset="1" stop-color="#120C08"/>
    </linearGradient>
    <radialGradient id="glow1" cx="0" cy="0" r="1" gradientUnits="userSpaceOnUse" gradientTransform="translate(620 176) rotate(90) scale(136)">
      <stop stop-color="white"/>
      <stop offset="1" stop-color="white" stop-opacity="0"/>
    </radialGradient>
    <radialGradient id="glow2" cx="0" cy="0" r="1" gradientUnits="userSpaceOnUse" gradientTransform="translate(190 326) rotate(90) scale(178)">
      <stop stop-color="#FFE0BA"/>
      <stop offset="1" stop-color="#FFE0BA" stop-opacity="0"/>
    </radialGradient>
    <linearGradient id="body" x1="212" y1="610" x2="590" y2="860" gradientUnits="userSpaceOnUse">
      <stop stop-color="#FFF2D9"/>
      <stop offset="1" stop-color="#6F3B10"/>
    </linearGradient>
    <linearGradient id="head" x1="278" y1="336" x2="526" y2="584" gradientUnits="userSpaceOnUse">
      <stop stop-color="#FFF8EC"/>
      <stop offset="1" stop-color="#F2C38E"/>
    </linearGradient>
  </defs>
</svg>
